<?xml version="1.0" encoding="UTF-8"?>
<svg xmlns="http://www.w3.org/2000/svg" xmlns:xlink="http://www.w3.org/1999/xlink" width="1920pt" height="1080pt" viewBox="0 0 1920 1080" version="1.1">
<defs>
<g>
<symbol overflow="visible" id="glyph0-0">
<path style="stroke:none;" d="M 1.328125 1.59375 L 12 1.59375 L 12 -11.734375 L 1.328125 -11.734375 Z M 6.65625 -5.609375 L 2.421875 -11.0625 L 10.90625 -11.0625 Z M 7.09375 -5.0625 L 11.328125 -10.515625 L 11.328125 0.390625 Z M 2.421875 0.9375 L 6.65625 -4.515625 L 10.90625 0.9375 Z M 2 -10.515625 L 6.234375 -5.0625 L 2 0.390625 Z "/>
</symbol>
<symbol overflow="visible" id="glyph0-1">
<path style="stroke:none;" d="M 11.28125 -10.09375 L 10.390625 -8.8125 L 0.59375 -8.8125 L 0.703125 -8.4375 L 12.515625 -8.4375 C 12.71875 -8.4375 12.859375 -8.5 12.890625 -8.65625 C 12.296875 -9.21875 11.28125 -10.09375 11.28125 -10.09375 Z M 4.953125 -11.34375 L 4.84375 -11.265625 C 5.421875 -10.71875 6.03125 -9.84375 6.203125 -9.015625 C 7.75 -8.0625 8.921875 -11.0625 4.953125 -11.34375 Z M 7.984375 -8.109375 L 7.875 -7.984375 C 9.015625 -7.1875 10.296875 -5.8125 10.828125 -4.609375 C 12.5625 -3.6875 13.375 -7.25 7.984375 -8.109375 Z M 5.84375 -7.359375 L 3.890625 -8.34375 C 3.40625 -7.03125 2.28125 -5.3125 0.9375 -4.25 L 1.03125 -4.09375 C 2.90625 -4.765625 4.4375 -6 5.34375 -7.171875 C 5.671875 -7.140625 5.78125 -7.21875 5.84375 -7.359375 Z M 10.296875 -5.125 L 8.3125 -5.984375 C 7.9375 -4.859375 7.34375 -3.8125 6.5625 -2.859375 C 5.5625 -3.59375 4.75 -4.546875 4.234375 -5.6875 L 4.046875 -5.5625 C 4.484375 -4.21875 5.125 -3.09375 5.9375 -2.15625 C 4.59375 -0.796875 2.765625 0.3125 0.40625 1.015625 L 0.5 1.1875 C 3.171875 0.765625 5.234375 -0.109375 6.78125 -1.3125 C 8.109375 -0.140625 9.75 0.640625 11.65625 1.1875 C 11.859375 0.421875 12.328125 -0.078125 13.046875 -0.21875 L 13.078125 -0.375 C 11.171875 -0.6875 9.296875 -1.21875 7.703125 -2.109375 C 8.578125 -2.953125 9.25 -3.90625 9.75 -4.9375 C 10.09375 -4.90625 10.21875 -4.984375 10.296875 -5.125 Z "/>
</symbol>
<symbol overflow="visible" id="glyph0-2">
<path style="stroke:none;" d=""/>
</symbol>
<symbol overflow="visible" id="glyph0-3">
<path style="stroke:none;" d="M 3.21875 -11.265625 L 3.109375 -11.203125 C 3.71875 -10.53125 4.34375 -9.515625 4.484375 -8.609375 C 6 -7.546875 7.25 -10.5625 3.21875 -11.265625 Z M 8.53125 -11.390625 C 8.296875 -10.484375 7.859375 -9.21875 7.46875 -8.3125 L 1.03125 -8.3125 L 1.140625 -7.9375 L 3.828125 -7.9375 L 3.828125 -4.78125 L 0.484375 -4.78125 L 0.59375 -4.390625 L 3.828125 -4.390625 C 3.765625 -2.28125 3.171875 -0.40625 0.421875 1.09375 L 0.515625 1.21875 C 4.71875 0 5.40625 -2.21875 5.484375 -4.390625 L 8.03125 -4.390625 L 8.03125 1.1875 L 8.34375 1.1875 C 9.203125 1.1875 9.6875 0.859375 9.703125 0.765625 L 9.703125 -4.390625 L 12.5625 -4.390625 C 12.75 -4.390625 12.90625 -4.46875 12.9375 -4.609375 C 12.34375 -5.15625 11.34375 -5.921875 11.34375 -5.921875 L 10.453125 -4.78125 L 9.703125 -4.78125 L 9.703125 -7.9375 L 12.21875 -7.9375 C 12.390625 -7.9375 12.5625 -8 12.59375 -8.140625 C 11.984375 -8.65625 10.984375 -9.40625 10.984375 -9.40625 L 10.109375 -8.3125 L 7.921875 -8.3125 C 8.78125 -9 9.65625 -9.890625 10.203125 -10.53125 C 10.53125 -10.515625 10.671875 -10.640625 10.734375 -10.796875 Z M 8.03125 -4.78125 L 5.484375 -4.78125 L 5.484375 -7.9375 L 8.03125 -7.9375 Z "/>
</symbol>
</g>
</defs>
<g id="surface1">
<g style="fill:rgb(100%,100%,100%);fill-opacity:1;">
  <use xlink:href="#glyph0-1" x="30" y="35.34668"/>
  <use xlink:href="#glyph0-2" x="43" y="35.34668"/>
  <use xlink:href="#glyph0-2" x="46" y="35.34668"/>
  <use xlink:href="#glyph0-2" x="49" y="35.34668"/>
  <use xlink:href="#glyph0-3" x="52" y="35.34668"/>
</g>
</g>
</svg>
